<svg width="35" height="35" viewBox="0 0 35 35" fill="none" xmlns="http://www.w3.org/2000/svg">
<g clip-path="url(#clip0)">
<rect width="35" height="35" fill="white"/>
<path d="M31.7791 4.39325H3.22089C1.44491 4.39325 0 5.83809 0 7.61633C0 9.3923 1.44491 10.8372 3.22089 10.8372H31.7791C33.5551 10.8372 35 9.3923 35 7.61633C35 5.83809 33.5551 4.39325 31.7791 4.39325Z" fill="#C2C2C2"/>
<path d="M31.7791 14.278H3.22089C1.44491 14.278 0 15.7229 0 17.5011C0 19.2771 1.44491 20.722 3.22089 20.722H31.7791C33.5551 20.722 35 19.2771 35 17.5011C35 15.7229 33.5551 14.278 31.7791 14.278Z" fill="#C2C2C2"/>
<path d="M31.7791 24.1628H3.22089C1.44491 24.1628 0 25.6077 0 27.3859C0 29.1618 1.44491 30.6067 3.22089 30.6067H31.7791C33.5551 30.6067 35 29.1618 35 27.3859C35 25.6077 33.5551 24.1628 31.7791 24.1628Z" fill="#C2C2C2"/>
</g>
<defs>
<clipPath id="clip0">
<rect width="35" height="35" fill="white"/>
</clipPath>
</defs>
</svg>
