<svg width="16" height="16" viewBox="0 0 16 16" fill="none" xmlns="http://www.w3.org/2000/svg">
<g clip-path="url(#clip0)">
<path d="M7.99999 10.6666C7.86333 10.6666 7.73266 10.6106 7.63866 10.512L4.13866 6.84531C3.83533 6.52798 4.06066 5.99998 4.49999 5.99998H6.33333V2.16665C6.33333 1.70731 6.70733 1.33331 7.16666 1.33331H8.83333C9.29266 1.33331 9.66666 1.70731 9.66666 2.16665V5.99998H11.5C11.9393 5.99998 12.1647 6.52798 11.8613 6.84531L8.36133 10.512C8.26733 10.6106 8.13666 10.6666 7.99999 10.6666Z" fill="#ffffff"/>
<path d="M14.8333 14.6667H1.16667C0.523333 14.6667 0 14.1433 0 13.5V13.1667C0 12.5233 0.523333 12 1.16667 12H14.8333C15.4767 12 16 12.5233 16 13.1667V13.5C16 14.1433 15.4767 14.6667 14.8333 14.6667Z" fill="#ffffff"/>
</g>
<defs>
<clipPath id="clip0">
<rect width="16" height="16" fill="white"/>
</clipPath>
</defs>
</svg>
