<svg width="16" height="16" viewBox="0 0 16 16" fill="none" xmlns="http://www.w3.org/2000/svg">
<g clip-path="url(#clip0)">
<path d="M10.606 8.08199L16 11.492V4.52798L10.606 8.08199Z" fill="#E6007A"/>
<path d="M0 4.52798V11.492L5.394 8.08199L0 4.52798Z" fill="#E6007A"/>
<path d="M15 2.5H1.00001C0.50101 2.5 0.10501 2.872 0.0300102 3.351L8.00001 8.602L15.97 3.351C15.895 2.872 15.499 2.5 15 2.5Z" fill="#E6007A"/>
<path d="M9.68999 8.686L8.27499 9.618C8.19099 9.673 8.09599 9.7 7.99999 9.7C7.90399 9.7 7.80899 9.673 7.72499 9.618L6.30999 8.685L0.0319862 12.656C0.108986 13.131 0.502986 13.5 0.999986 13.5H15C15.497 13.5 15.891 13.131 15.968 12.656L9.68999 8.686Z" fill="#E6007A"/>
</g>
<defs>
<clipPath id="clip0">
<rect width="16" height="16" fill="white"/>
</clipPath>
</defs>
</svg>
