<svg width="60" height="60" viewBox="0 0 60 60" fill="none" xmlns="http://www.w3.org/2000/svg">
<path d="M55.7391 27.5681H49.7605H48.9608C47.1934 27.5681 45.7599 29.0015 45.7599 30.7749V31.1226C45.7599 32.8976 47.1934 34.3319 48.9633 34.3319H54.9479H55.7391C57.5099 34.3319 58.9476 32.8917 58.9476 31.1226L58.9442 30.7706C58.9476 29.0015 57.5099 27.5681 55.7391 27.5681Z" fill="url(#paint0_linear)"/>
<path d="M55.7425 19.5679H54.3305V4.05366C54.3305 1.82389 52.5066 0 50.276 0H23.5265C21.2967 0 19.4728 1.82475 19.4728 4.05366V15.1845C14.0773 18.2346 8.51233 21.4209 8.50035 21.4286C5.47937 22.6719 1.05322 26.6836 1.05322 36.1567C1.05322 37.0027 1.10888 37.7836 1.1868 38.538C1.21164 38.759 1.23904 38.9713 1.26901 39.1845C1.34693 39.7385 1.44455 40.2686 1.561 40.7721C1.60296 40.9519 1.6355 41.1394 1.68088 41.3115C1.83758 41.8938 2.01911 42.4401 2.22291 42.9599C2.32566 43.2176 2.43698 43.4523 2.54916 43.6937C2.66904 43.9481 2.78977 44.1981 2.91907 44.4319C3.06892 44.7136 3.21877 44.985 3.38318 45.2428C3.42257 45.3027 3.46538 45.3575 3.50563 45.4183C7.40687 51.3155 14.604 51.3421 14.604 51.3421H19.4728V55.9481C19.4728 58.1753 21.2967 59.9991 23.5265 59.9991H50.2751C52.5058 59.9991 54.3297 58.1744 54.3297 55.9481V50.33H54.9479V50.3265H55.7365C57.5099 50.3265 58.9476 48.8923 58.9442 47.1189L58.9476 46.7695C58.9442 44.9987 57.5099 43.5687 55.7391 43.5687H54.9479H49.7597H48.9599C47.1891 43.5687 45.7591 45.0021 45.7591 46.7721V47.1274C45.7591 48.8931 47.1925 50.3325 48.9625 50.3325H51.509V52.5024H22.2926V23.3963C23.7602 22.4655 25.1192 21.5699 25.8941 20.9696C29.8202 17.9332 33.5467 15.5151 34.0511 13.3221C34.7079 10.4767 32.5235 8.07906 28.7344 10.0477C27.5407 10.6676 25.0909 12.0265 22.2926 13.5978V6.42386L51.509 6.42814V19.5661H49.7597V19.5696H48.9642C47.1925 19.5696 45.7548 21.003 45.7548 22.7781V23.1257C45.7548 24.9 47.1925 26.33 48.9599 26.33H49.7554H54.9436H55.7408C57.5099 26.33 58.9442 24.8965 58.9442 23.1257V22.7687C58.9476 21.0056 57.5142 19.5679 55.7425 19.5679ZM36.8974 53.9255C38.0208 53.9255 38.9268 54.8323 38.9268 55.9532C38.9268 57.0766 38.02 57.98 36.8974 57.98C35.7782 57.98 34.874 57.0741 34.874 55.9532C34.8757 54.8357 35.7825 53.9255 36.8974 53.9255ZM41.1814 3.90295H32.6219C32.3531 3.90295 32.1304 3.6846 32.1304 3.41487C32.1304 3.14086 32.3531 2.92251 32.6219 2.92251H41.1814C41.4503 2.92251 41.6695 3.14 41.6695 3.41487C41.6695 3.68374 41.4503 3.90295 41.1814 3.90295Z" fill="url(#paint1_linear)"/>
<path d="M55.7391 35.5684H54.9479H48.9608C47.1934 35.5684 45.7557 37.0061 45.7557 38.7761V39.1271C45.7557 40.8988 47.19 42.3322 48.9608 42.3322H49.7562H54.9445H55.7374C57.5108 42.3322 58.9408 40.8988 58.9451 39.1271V38.7761C58.9442 37.0061 57.5142 35.5684 55.7391 35.5684Z" fill="url(#paint2_linear)"/>
<defs>
<linearGradient id="paint0_linear" x1="52.3538" y1="27.5681" x2="52.3538" y2="34.3319" gradientUnits="userSpaceOnUse">
<stop offset="0.425" stop-color="#E6007A"/>
<stop offset="1" stop-color="#A91B93"/>
</linearGradient>
<linearGradient id="paint1_linear" x1="30.0004" y1="0" x2="30.0004" y2="59.9991" gradientUnits="userSpaceOnUse">
<stop offset="0.425" stop-color="#E6007A"/>
<stop offset="1" stop-color="#A91B93"/>
</linearGradient>
<linearGradient id="paint2_linear" x1="52.3504" y1="35.5684" x2="52.3504" y2="42.3322" gradientUnits="userSpaceOnUse">
<stop offset="0.425" stop-color="#E6007A"/>
<stop offset="1" stop-color="#A91B93"/>
</linearGradient>
</defs>
</svg>
