<svg width="25" height="25" viewBox="0 0 25 25" fill="none" xmlns="http://www.w3.org/2000/svg">
<g clip-path="url(#clip0)">
<path d="M24.9938 25V24.9989H25.0001V15.8302C25.0001 11.3447 24.0344 7.88953 18.7907 7.88953C16.2699 7.88953 14.5782 9.27286 13.8876 10.5843H13.8146V8.30828H8.84277V24.9989H14.0199V16.7343C14.0199 14.5583 14.4324 12.4541 17.1271 12.4541C19.7824 12.4541 19.8219 14.9374 19.8219 16.8739V25H24.9938Z" fill="white"/>
<path d="M0.412537 8.30933H5.59587V25H0.412537V8.30933Z" fill="white"/>
<path d="M3.00208 0C1.34479 0 0 1.34479 0 3.00208C0 4.65938 1.34479 6.03229 3.00208 6.03229C4.65937 6.03229 6.00417 4.65938 6.00417 3.00208C6.00312 1.34479 4.65833 0 3.00208 0V0Z" fill="white"/>
</g>
<defs>
<clipPath id="clip0">
<rect width="25" height="25" fill="white"/>
</clipPath>
</defs>
</svg>
