<svg width="70" height="70" viewBox="0 0 70 70" fill="none" xmlns="http://www.w3.org/2000/svg">
<g clip-path="url(#clip0)">
<path d="M44.4792 39.375C43.9746 39.375 43.47 39.2029 43.0558 38.8471C42.14 38.0596 42.0321 36.68 42.8196 35.7613L45.9725 32.0833L42.8167 28.4025C42.0292 27.4867 42.1371 26.1042 43.0529 25.3167C43.9717 24.5292 45.3512 24.6371 46.1387 25.5529L50.5137 30.6571C51.2167 31.4767 51.2167 32.6842 50.5137 33.5067L46.1387 38.6108C45.7071 39.1154 45.0946 39.375 44.4792 39.375Z" fill="url(#paint0_linear)"/>
<path d="M25.5208 39.375C24.9054 39.375 24.2929 39.1154 23.8583 38.6109L19.4833 33.5067C18.7804 32.6871 18.7804 31.4796 19.4833 30.6571L23.8583 25.5529C24.6429 24.6342 26.0254 24.5292 26.9442 25.3196C27.86 26.1071 27.9679 27.4867 27.1804 28.4054L24.0275 32.0834L27.1833 35.7642C27.9708 36.68 27.8629 38.0625 26.9471 38.85C26.5329 39.2 26.0254 39.375 25.5208 39.375Z" fill="url(#paint1_linear)"/>
<path d="M32.3225 43.6945C31.1442 43.4233 30.4121 42.2479 30.6804 41.0725L35.0554 22.1141C35.3267 20.9358 36.4992 20.2154 37.6775 20.472C38.8558 20.7433 39.5879 21.9187 39.3196 23.0941L34.9446 42.0525C34.6792 43.2104 33.5271 43.9658 32.3225 43.6945Z" fill="url(#paint2_linear)"/>
<path d="M64.8958 11.6667H5.10416C2.30416 11.6667 -7.62939e-06 13.9709 -7.62939e-06 16.7709V56.1459C-7.62939e-06 58.9459 2.30416 61.25 5.10416 61.25H27.44C27.0958 62.7113 26.1887 65.0825 23.7592 67.5092C23.3421 67.9263 23.2167 68.5534 23.4442 69.0988C23.6687 69.6442 24.2025 70 24.7917 70H45.2083C45.7975 70 46.3312 69.6442 46.5558 69.0988C46.7804 68.5534 46.655 67.9263 46.2408 67.5092C43.8171 65.0854 42.8837 62.7142 42.5221 61.25H64.8958C67.6958 61.25 70 58.9459 70 56.1459V16.7709C70 13.9709 67.6958 11.6667 64.8958 11.6667ZM64.1667 49.5834H5.83333V17.5H64.1667V49.5834Z" fill="url(#paint3_linear)"/>
</g>
<defs>
<linearGradient id="paint0_linear" x1="46.6652" y1="24.7896" x2="46.6652" y2="39.375" gradientUnits="userSpaceOnUse">
<stop offset="0.471875" stop-color="#E6007A"/>
<stop offset="1" stop-color="#A91B93"/>
</linearGradient>
<linearGradient id="paint1_linear" x1="23.3333" y1="24.7891" x2="23.3333" y2="39.375" gradientUnits="userSpaceOnUse">
<stop offset="0.471875" stop-color="#E6007A"/>
<stop offset="1" stop-color="#A91B93"/>
</linearGradient>
<linearGradient id="paint2_linear" x1="35" y1="20.4202" x2="35" y2="43.7498" gradientUnits="userSpaceOnUse">
<stop offset="0.471875" stop-color="#E6007A"/>
<stop offset="1" stop-color="#A91B93"/>
</linearGradient>
<linearGradient id="paint3_linear" x1="35" y1="11.6667" x2="35" y2="70" gradientUnits="userSpaceOnUse">
<stop offset="0.471875" stop-color="#E6007A"/>
<stop offset="1" stop-color="#A91B93"/>
</linearGradient>
<clipPath id="clip0">
<rect width="70" height="70" fill="white"/>
</clipPath>
</defs>
</svg>
