<svg width="40" height="56" viewBox="0 0 40 56" fill="none" xmlns="http://www.w3.org/2000/svg">
<path d="M5.92575 29.3742C3.16325 25.8671 1.813 21.4416 2.14421 16.9802C2.47543 12.5187 4.46376 8.34904 7.7128 5.30245C10.9618 2.25586 15.2329 0.556183 19.6744 0.54229C24.1159 0.528397 28.4016 2.20131 31.677 5.22749C34.9525 8.25367 36.977 12.4108 37.3469 16.8701C37.7169 21.3293 36.4051 25.7631 33.6732 29.2874C30.9412 32.8117 26.9898 35.1677 22.6067 35.8856C18.2235 36.6034 13.7308 35.6305 10.0241 33.1607L13.134 28.419C15.6556 30.0992 18.7121 30.7612 21.6939 30.2728C24.6758 29.7844 27.3639 28.1817 29.2225 25.7841C31.081 23.3865 31.9734 20.3701 31.7217 17.3365C31.4701 14.3029 30.0928 11.4748 27.8645 9.41605C25.6362 7.35733 22.7207 6.21925 19.6991 6.2287C16.6775 6.23816 13.7719 7.39445 11.5616 9.46705C9.35128 11.5396 7.99861 14.3763 7.77329 17.4114C7.54797 20.4466 8.46654 23.4572 10.3459 25.8431L5.92575 29.3742Z" fill="black"/>
<path d="M5.40846 28.5443C7.55087 31.4285 12.4061 27.4247 9.66792 25.1922L5.40846 28.5443Z" fill="black"/>
<path d="M3.8516 50.1973L13.4374 19.5345C14.552 15.969 20.003 17.909 18.9479 21.2843L9.36209 51.9471C8.57442 54.4667 3.03421 52.812 3.8516 50.1973Z" fill="black"/>
<path d="M17.0322 33.3725L26.6413 46.7069C27.7587 48.2574 23.1221 51.5244 22.0644 50.0566L12.4553 36.7222C11.6657 35.6265 16.2128 32.2355 17.0322 33.3725Z" fill="black"/>
<path d="M11.7573 51.7633L33.8435 51.8064C36.4116 51.8114 36.2746 55.4226 33.8435 55.4179L11.7573 55.3748C9.94247 55.3712 9.87398 51.7596 11.7573 51.7633Z" fill="#E6007A"/>
</svg>
